<svg preserveAspectRatio="none" width="100%" height="100%" overflow="visible" style="display: block;" viewBox="0 0 40 37.1344" fill="none" xmlns="http://www.w3.org/2000/svg">
<g id="Frame 2147229215">
<path id="Vector" d="M39.8631 27.2981C39.7586 26.9045 39.5896 26.531 39.363 26.1927C39.4115 26.0146 39.4486 25.8335 39.4733 25.6506C39.6343 24.49 39.2319 23.4274 38.4737 22.6053C38.0629 22.1563 37.6226 21.8597 37.1563 21.6777C37.4624 20.3681 37.6172 19.0278 37.6179 17.6831C37.6179 17.0688 37.5832 16.4671 37.5249 15.8743C37.4946 15.5784 37.4579 15.2832 37.4148 14.9887C37.2814 14.12 37.0833 13.2623 36.8222 12.4231C36.6511 11.8717 36.4532 11.3289 36.2291 10.7968C35.8933 10.0087 35.5012 9.24575 35.0558 8.51395C34.7637 8.02705 34.4456 7.55623 34.1028 7.10355C33.9348 6.87496 33.7598 6.65176 33.5777 6.43428C33.0381 5.77861 32.4518 5.16288 31.8233 4.59195C31.6145 4.4 31.3999 4.21464 31.1795 4.0361C30.9625 3.85515 30.7407 3.68004 30.5145 3.51094C30.059 3.17195 29.5885 2.85395 29.1041 2.55792C26.4276 0.932333 23.2889 9.60032e-05 19.9342 9.60032e-05C10.1667 9.60032e-05 2.25041 7.91673 2.25041 17.6837C2.25002 19.0455 2.40773 20.4027 2.72042 21.728C2.30091 21.9102 1.89888 22.1941 1.52599 22.6049C0.767962 23.4266 0.365352 24.4853 0.526357 25.6459C0.550828 25.8302 0.587535 26.0128 0.636477 26.1923C0.410041 26.5308 0.241189 26.9045 0.136759 27.2981C-0.0962998 28.184 -0.0195846 28.9828 0.276595 29.6827C-0.0454153 30.5975 0.0349903 31.5717 0.454303 32.4186C0.759222 33.0372 1.19563 33.5158 1.7336 33.9434C2.37316 34.4519 3.17372 34.8838 4.13936 35.2983C5.29145 35.7896 6.69777 36.2513 7.33732 36.4207C8.98932 36.8483 10.5733 37.1194 12.1787 37.1327C14.466 37.1538 16.4358 36.616 17.846 35.2396C18.5387 35.3245 19.2362 35.367 19.9342 35.3666C20.6716 35.3651 21.4083 35.3187 22.1401 35.2278C23.547 36.6129 25.5243 37.1556 27.8199 37.1338C29.4251 37.121 31.0092 36.8499 32.6569 36.4216C33.3007 36.2523 34.7064 35.7906 35.8591 35.2993C36.8248 34.8842 37.6253 34.4523 38.2691 33.9446C38.803 33.5167 39.2391 33.0384 39.5442 32.4198C39.9678 31.5726 40.0439 30.5984 39.7263 29.6837C40.0196 28.9837 40.0959 28.1832 39.8631 27.2981ZM38.2239 29.6235C38.5484 30.2393 38.5692 30.9352 38.2829 31.5833C37.8487 32.5655 36.77 33.3392 34.675 34.1699C33.3722 34.6865 32.1793 35.0169 32.1688 35.0198C30.4457 35.4667 28.8873 35.6937 27.5383 35.6937C25.3044 35.6937 23.6421 35.0773 22.5879 33.8599C20.8052 34.1637 18.985 34.174 17.199 33.8906C16.1435 35.0878 14.4907 35.6937 12.2757 35.6937C10.9264 35.6937 9.36824 35.4667 7.64496 35.0198C7.63447 35.0169 6.44198 34.6865 5.13879 34.1699C3.04398 33.3392 1.96492 32.5661 1.53084 31.5833C1.24457 30.9352 1.26535 30.2393 1.58988 29.6235C1.61979 29.5662 1.65203 29.5104 1.68641 29.4565C1.49192 29.1644 1.36147 28.8344 1.30361 28.4881C1.24577 28.142 1.26185 27.7876 1.3508 27.4481C1.47976 26.9581 1.74603 26.5506 2.10766 26.2579C1.93345 25.9716 1.81916 25.6531 1.77167 25.3214C1.66757 24.6001 1.90704 23.8799 2.4456 23.2926C2.86511 22.8356 3.45805 22.5841 4.1145 22.5841H4.13198C3.63702 20.9976 3.38607 19.345 3.38774 17.6831C3.38774 8.61882 10.7361 1.26988 19.8017 1.26988C28.8671 1.26988 36.2155 8.61805 36.2155 17.6831C36.2169 19.3495 35.9642 21.0063 35.466 22.5966C35.5453 22.5888 35.6229 22.5849 35.6993 22.5847C36.3557 22.5847 36.9489 22.8362 37.368 23.2932C37.9065 23.8799 38.1462 24.6007 38.0419 25.322C37.9945 25.6537 37.8801 25.9722 37.7061 26.2585C38.0677 26.5512 38.3342 26.9586 38.463 27.4487C38.5519 27.7881 38.568 28.1426 38.5102 28.4889C38.4525 28.835 38.322 29.1649 38.1274 29.457C38.1617 29.5104 38.1944 29.5662 38.2239 29.6235Z" fill="var(--fill-0, white)"/>
<path id="Vector_2" d="M38.1278 29.4572C38.3224 29.165 38.4529 28.8351 38.5108 28.489C38.5685 28.1427 38.5523 27.7883 38.4634 27.4488C38.3344 26.9588 38.068 26.5513 37.7065 26.2586C37.8807 25.9723 37.9949 25.6538 38.0423 25.3221C38.1466 24.6008 37.9072 23.8806 37.3684 23.2933C36.9493 22.8363 36.3561 22.5848 35.6997 22.5848C35.6234 22.5848 35.5457 22.5889 35.4664 22.5967C35.964 21.0064 36.2163 19.3498 36.2146 17.6836C36.2146 8.61915 28.8662 1.2704 19.8016 1.2704C10.7367 1.2704 3.38756 8.61837 3.38756 17.6836C3.38592 19.3455 3.63687 20.9981 4.13181 22.5846H4.11431C3.45786 22.5846 2.86494 22.8359 2.44563 23.2929C1.90707 23.8797 1.66738 24.6006 1.77168 25.3217C1.8192 25.6534 1.9335 25.9721 2.10767 26.2584C1.74604 26.5509 1.4796 26.9584 1.35064 27.4484C1.26173 27.7881 1.2457 28.1425 1.30362 28.4888C1.36153 28.8349 1.49205 29.165 1.68661 29.4572C1.65204 29.5111 1.62019 29.5669 1.59009 29.6242C1.26575 30.24 1.24479 30.9359 1.53126 31.584C1.96553 32.5662 3.04418 33.3399 5.13919 34.1706C6.4418 34.6872 7.63489 35.0176 7.64537 35.0205C9.36846 35.4674 10.9269 35.6944 12.2759 35.6944C14.4911 35.6944 16.1439 35.0884 17.1994 33.8913C18.9855 34.1747 20.8056 34.1642 22.5884 33.8606C23.6426 35.078 25.3049 35.6944 27.5387 35.6944C28.8878 35.6944 30.4461 35.4674 32.169 35.0205C32.1797 35.0176 33.3722 34.6872 34.6754 34.1706C36.7704 33.3399 37.8493 32.5662 38.2833 31.584C38.5696 30.9359 38.5488 30.24 38.2243 29.6242C38.1948 29.5665 38.1622 29.5106 38.1278 29.4572ZM16.4441 32.0171C16.3532 32.176 16.2559 32.3312 16.1524 32.4821C15.8796 32.8816 15.5206 33.1869 15.104 33.4137C14.3077 33.848 13.2998 33.9997 12.2759 33.9997C10.6582 33.9997 9.00003 33.6211 8.07071 33.3801C8.02487 33.3683 2.37357 31.772 3.08907 30.4133C3.20948 30.1847 3.40756 30.0934 3.65713 30.0934C4.66453 30.0934 6.4989 31.5935 7.28722 31.5935C7.46337 31.5935 7.58767 31.5186 7.63836 31.3356C7.97436 30.1307 2.53184 29.6242 2.99019 27.8793C3.07098 27.5705 3.29047 27.4451 3.59888 27.4451C4.93082 27.4449 7.92019 29.7873 8.54537 29.7873C8.59334 29.7873 8.6277 29.7731 8.64635 29.7436C8.64906 29.7392 8.6518 29.7349 8.65433 29.7302C8.94779 29.2457 8.77938 28.8933 6.76905 27.662L6.576 27.5445C4.36369 26.2056 2.81093 25.3998 3.69403 24.4384C3.7956 24.3275 3.93971 24.2784 4.1147 24.2784C4.32212 24.2784 4.57325 24.3477 4.84981 24.4642C6.01821 24.957 7.63761 26.3008 8.31406 26.8867C8.42047 26.9791 8.5262 27.0726 8.6312 27.1666C8.6312 27.1666 9.48771 28.0572 10.0055 28.0572C10.1247 28.0572 10.2259 28.0102 10.2945 27.8941C10.6617 27.2749 6.88345 24.4118 6.67039 23.2304C6.52589 22.43 6.77177 22.0245 7.22624 22.0245C7.4424 22.0245 7.70614 22.1166 7.99727 22.3013C8.90038 22.8744 10.6441 25.8708 11.2824 27.0364C11.4965 27.427 11.8618 27.5921 12.191 27.5921C12.8441 27.5921 13.3547 26.9428 12.2508 26.1178C10.5916 24.8764 11.1739 22.8472 11.9657 22.7223C11.9995 22.7169 12.0337 22.7142 12.0677 22.7142C12.7878 22.7142 13.1054 23.955 13.1054 23.955C13.1054 23.955 14.0364 26.293 15.6358 27.8912C17.087 29.3418 17.2898 30.5321 16.4441 32.0171ZM21.6159 32.291L21.533 32.3009L21.3916 32.317C21.3172 32.3248 21.2426 32.3321 21.1679 32.3389L21.095 32.3455L21.0284 32.3512L20.934 32.3587L20.8297 32.3663L20.7256 32.3731L20.7025 32.3747C20.6753 32.3762 20.6481 32.378 20.6206 32.3793L20.5858 32.3813C20.5536 32.383 20.5213 32.3846 20.4887 32.3859L20.3758 32.3908L20.2735 32.3943L20.2051 32.3962H20.1704C20.149 32.3962 20.1278 32.3974 20.1065 32.3976H20.0727C20.0513 32.3976 20.0301 32.3976 20.0088 32.3986L19.9218 32.3997H19.8004C19.705 32.3997 19.6099 32.3987 19.5151 32.3968L19.4382 32.3951C19.4162 32.3951 19.3943 32.3941 19.3727 32.3933L19.2912 32.391L19.19 32.3871L19.0987 32.383L19.0752 32.382L18.9884 32.3776C18.9641 32.3762 18.9402 32.3751 18.9161 32.3733L18.86 32.37C18.7895 32.3655 18.719 32.3607 18.6485 32.3552L18.5747 32.3492C18.5436 32.3469 18.5125 32.344 18.4817 32.3413C18.4453 32.3382 18.409 32.3347 18.3727 32.3312C18.3119 32.3255 18.2511 32.3193 18.1903 32.3127H18.1874C19.075 30.3327 18.6262 28.4834 16.8326 26.6913C15.6562 25.5165 14.8737 23.7818 14.7113 23.4009C14.3827 22.2735 13.513 21.0202 12.0686 21.0202C11.9465 21.0202 11.8245 21.0299 11.7039 21.049C11.0712 21.1486 10.518 21.5127 10.1234 22.0608C9.69688 21.5304 9.28242 21.1088 8.90759 20.8707C8.34242 20.5123 7.77839 20.3306 7.22896 20.3306C6.54318 20.3306 5.93023 20.6122 5.50296 21.123L5.49208 21.136C5.48392 21.1024 5.47616 21.0688 5.46819 21.035L5.46722 21.0305C5.3859 20.6829 5.31764 20.3323 5.26252 19.9794C5.26252 19.9771 5.26252 19.9747 5.26135 19.9724C5.25708 19.9458 5.2532 19.919 5.24912 19.8924C5.23717 19.8135 5.22597 19.7345 5.21552 19.6555C5.21086 19.6195 5.20581 19.5836 5.20134 19.5477L5.18813 19.4399C5.18386 19.4039 5.18036 19.3713 5.17648 19.3371L5.17534 19.3286C5.15982 19.1888 5.14622 19.0489 5.13453 18.9087L5.13026 18.8549L5.12346 18.7632C5.12152 18.7382 5.11958 18.7129 5.11822 18.6877C5.11822 18.6817 5.11724 18.6758 5.11705 18.6702C5.11212 18.5999 5.1079 18.5294 5.10443 18.4589C5.10248 18.4222 5.10054 18.3857 5.09899 18.3488L5.0951 18.2524L5.09413 18.2233L5.09103 18.1345L5.08908 18.059C5.08908 18.0289 5.08753 17.9988 5.08714 17.9687C5.08656 17.9386 5.08578 17.9056 5.08559 17.8737C5.0852 17.8419 5.08559 17.8104 5.08462 17.7787C5.08384 17.7469 5.08462 17.7152 5.08462 17.6836C5.08462 9.55508 11.6746 2.96513 19.8039 2.96513C27.933 2.96513 34.5227 9.55488 34.5227 17.6836V17.8737C34.5227 17.9054 34.5218 17.9372 34.5212 17.9687C34.5212 17.9949 34.52 18.0207 34.5192 18.0473C34.5192 18.0707 34.5183 18.0942 34.5175 18.1167C34.5175 18.1464 34.5158 18.1761 34.5148 18.2058V18.2082L34.5107 18.3113C34.5093 18.3414 34.5082 18.3717 34.5066 18.4018L34.5057 18.4232L34.5004 18.5195C34.4889 18.7259 34.4732 18.932 34.4536 19.1379V19.1404C34.4503 19.1742 34.447 19.208 34.4433 19.2418L34.4346 19.3216L34.4173 19.4777L34.4074 19.5568L34.3951 19.6498C34.3907 19.6836 34.3862 19.7176 34.3812 19.7512C34.3761 19.7891 34.3705 19.8268 34.3648 19.8644L34.3514 19.9536L34.3355 20.0546C34.3301 20.0882 34.3243 20.1216 34.318 20.155C34.3116 20.1886 34.3066 20.222 34.3008 20.2554C34.2891 20.3222 34.2769 20.389 34.264 20.4556C34.2444 20.5553 34.2244 20.6547 34.2038 20.7541L34.1825 20.8526C34.1755 20.8854 34.1679 20.9184 34.1605 20.9513C33.7463 20.5487 33.1976 20.3294 32.5926 20.3294C32.0436 20.3294 31.479 20.511 30.914 20.8693C30.5392 21.1074 30.1249 21.5293 29.6982 22.0595C29.303 21.5114 28.7499 21.1472 28.1175 21.0476C27.9969 21.0286 27.8749 21.0189 27.7528 21.0189C26.308 21.0189 25.4389 22.2721 25.1101 23.3996C24.9469 23.7804 24.1642 25.5151 22.9869 26.6917C21.1945 28.4781 20.7423 30.3191 21.6159 32.291ZM36.8116 28.3272L36.8058 28.3445C36.791 28.3835 36.7739 28.4216 36.7547 28.4585C36.7401 28.4857 36.7244 28.5121 36.7073 28.5377C36.6749 28.5861 36.6393 28.6323 36.6007 28.6758C36.5917 28.6859 36.5832 28.696 36.5731 28.7059C36.5591 28.7209 36.5449 28.7356 36.5304 28.75C36.2689 29.0091 35.8704 29.2363 35.4198 29.4447C35.3687 29.4678 35.3169 29.4909 35.2646 29.5143L35.2126 29.5374C35.1778 29.5527 35.1431 29.5679 35.1066 29.5828C35.0718 29.598 35.0357 29.6131 34.9995 29.6279L34.8912 29.6725C34.6377 29.7768 34.3781 29.8763 34.1248 29.9743L34.0164 30.0165L33.9094 30.0584C33.8381 30.0862 33.7678 30.114 33.6987 30.1418L33.5956 30.1833L33.4942 30.2247L33.4445 30.2457C33.4112 30.2595 33.3788 30.2732 33.3464 30.287C32.6012 30.6069 32.0649 30.9322 32.1776 31.3358C32.1807 31.3473 32.1842 31.3581 32.1881 31.3688C32.1982 31.3987 32.212 31.4269 32.2292 31.4535C32.2393 31.4692 32.251 31.4842 32.264 31.4978C32.3965 31.6355 32.6375 31.6137 32.9414 31.5044C32.9842 31.4887 33.0267 31.4723 33.0688 31.4552L33.0953 31.4444C33.1648 31.4149 33.2384 31.3818 33.3136 31.3461C33.3324 31.3372 33.3514 31.3286 33.3705 31.3187C33.7422 31.1369 34.1634 30.8922 34.5814 30.6694C34.7486 30.5791 34.9182 30.4935 35.0899 30.4121C35.4857 30.2259 35.8578 30.0938 36.1569 30.0938C36.2973 30.0938 36.4212 30.1225 36.5245 30.1886L36.5418 30.2C36.6067 30.2457 36.6611 30.3043 36.7017 30.3723C36.7096 30.3853 36.7174 30.3991 36.725 30.4133C36.8728 30.6939 36.749 30.9845 36.4595 31.2694C36.1815 31.543 35.7492 31.8112 35.2579 32.0595C35.2213 32.0779 35.1848 32.0964 35.1477 32.1144C33.6853 32.8326 31.7701 33.3735 31.7435 33.3803C31.2331 33.5126 30.5032 33.6862 29.6809 33.8161L29.5594 33.8352L29.5394 33.8381C29.4473 33.8521 29.355 33.8651 29.2626 33.8771C29.1688 33.8897 29.074 33.9012 28.9786 33.9119L28.9612 33.9138C28.6155 33.9536 28.2684 33.9801 27.9206 33.9927H27.9155C27.7897 33.9971 27.664 33.9995 27.5382 33.9995H27.3931C27.2012 33.997 27.0097 33.9882 26.8184 33.9735C26.8139 33.9735 26.8091 33.9735 26.8046 33.9723C26.736 33.967 26.6677 33.9606 26.5993 33.9531C26.5284 33.9455 26.4577 33.9369 26.3872 33.9274C26.3408 33.9212 26.2946 33.9142 26.2484 33.9066C26.2014 33.8991 26.1544 33.8913 26.1076 33.8831L26.0437 33.8711L26.0388 33.8701C25.9714 33.8573 25.9044 33.8431 25.8376 33.8276C25.7988 33.8189 25.7601 33.8103 25.7218 33.7998L25.6987 33.794C25.6797 33.7893 25.6612 33.7843 25.6424 33.7792L25.6321 33.7765L25.5723 33.759C25.5505 33.753 25.5288 33.7464 25.507 33.74L25.4995 33.7379L25.4429 33.7206C25.4216 33.714 25.4002 33.707 25.379 33.7L25.327 33.6827L25.2887 33.6693C25.2518 33.6563 25.2151 33.6429 25.1788 33.6289L25.1442 33.6153L25.1157 33.6041C25.0605 33.5819 25.0058 33.5588 24.9516 33.5345L24.9156 33.517L24.9096 33.5143C24.8968 33.5083 24.8842 33.5023 24.8714 33.497C24.8463 33.485 24.8215 33.4726 24.7968 33.4599L24.7892 33.4563L24.7535 33.4374C24.69 33.4042 24.6278 33.3689 24.5668 33.3314L24.5334 33.3108C24.5167 33.3005 24.5 33.2898 24.4837 33.2789L24.4402 33.2502L24.3934 33.2179L24.3654 33.1979C24.3359 33.177 24.307 33.1552 24.2786 33.1329L24.2334 33.0981C24.2153 33.0836 24.1974 33.0688 24.1798 33.0538C24.1648 33.0416 24.1502 33.0288 24.1357 33.016L24.1345 33.015C24.1188 33.0012 24.1034 32.9874 24.0881 32.9732C24.0729 32.9594 24.0578 32.9455 24.043 32.9313L24.0413 32.9295C24.0258 32.9148 24.0106 32.8998 23.9956 32.8845C23.9807 32.8693 23.9653 32.8542 23.9508 32.8386C23.9362 32.8233 23.9213 32.8076 23.9069 32.7915C23.8925 32.7755 23.8793 32.761 23.8657 32.7452L23.8613 32.74C23.848 32.7248 23.835 32.7095 23.8222 32.6938C23.7944 32.6606 23.7674 32.6266 23.7414 32.5918C23.7152 32.5568 23.6896 32.5211 23.6645 32.4848L23.6406 32.449C23.6088 32.4024 23.5777 32.3554 23.5476 32.3077C23.5251 32.2733 23.5031 32.2387 23.4818 32.2036C23.468 32.1816 23.4548 32.1595 23.4415 32.1377L23.4361 32.1288C23.4235 32.1074 23.4111 32.0864 23.399 32.0653C23.392 32.0538 23.3854 32.0424 23.3792 32.0305C23.3728 32.0185 23.3654 32.0062 23.3586 31.994L23.3476 31.9748L23.3408 31.9623C23.3277 31.939 23.3149 31.9155 23.3025 31.8918C23.2967 31.8814 23.291 31.8709 23.285 31.8608L23.2677 31.8272L23.2502 31.794C23.2065 31.7066 23.1652 31.618 23.1263 31.5283L23.1125 31.4954C23.1036 31.4735 23.0953 31.4518 23.0863 31.4302C23.0821 31.4197 23.0778 31.4094 23.0741 31.3989C23.0533 31.3451 23.0339 31.2907 23.016 31.236C23.0096 31.2164 23.0034 31.1971 22.9976 31.1777C22.9836 31.1336 22.971 31.0892 22.9597 31.0443C22.9459 30.992 22.9337 30.9394 22.9234 30.8864C22.9212 30.8757 22.9191 30.865 22.9174 30.8547C22.9073 30.8029 22.8991 30.7506 22.8927 30.6982C22.8911 30.6879 22.89 30.6776 22.8888 30.6673L22.8855 30.6358C22.8812 30.5947 22.8779 30.5533 22.876 30.5119C22.876 30.5014 22.875 30.491 22.8746 30.4809C22.8737 30.4603 22.8733 30.4397 22.8731 30.4191C22.8622 29.5892 23.2821 28.7914 24.18 27.8939C25.7793 26.2961 26.7104 23.9579 26.7104 23.9579C26.7104 23.9579 26.7355 23.8598 26.7875 23.7186C26.7947 23.699 26.8023 23.6788 26.8108 23.6577C26.8411 23.5786 26.8753 23.5009 26.9132 23.4252L26.9207 23.4106C26.953 23.3461 26.9883 23.2832 27.0264 23.222C27.0353 23.2079 27.0439 23.1939 27.0538 23.1797C27.0823 23.1376 27.1124 23.0964 27.1441 23.0566C27.1614 23.035 27.1802 23.0136 27.199 22.9929C27.2066 22.9847 27.214 22.9766 27.222 22.9688C27.3146 22.873 27.4205 22.795 27.5403 22.7534L27.5554 22.7483C27.5655 22.745 27.5756 22.7419 27.5859 22.739C27.5978 22.7359 27.6096 22.7332 27.6219 22.7307L27.6275 22.7295C27.6527 22.7245 27.6784 22.7212 27.7042 22.7194H27.7063C27.7197 22.7194 27.7333 22.718 27.7471 22.718C27.7644 22.718 27.7805 22.718 27.7974 22.7198C27.8149 22.7214 27.8322 22.7233 27.8497 22.726C27.9938 22.7489 28.1309 22.8348 28.249 22.9672C28.2938 23.0177 28.3342 23.0721 28.3696 23.1296C28.3929 23.1669 28.4148 23.2063 28.4356 23.2479C28.444 23.2652 28.4519 23.2811 28.4597 23.2982C28.4799 23.3421 28.4982 23.3867 28.5141 23.4324C28.552 23.5392 28.5805 23.6491 28.5993 23.761C28.6157 23.8591 28.6254 23.9581 28.6285 24.0574C28.63 24.1104 28.63 24.1642 28.6285 24.2184C28.618 24.4705 28.5663 24.7193 28.4756 24.9548C28.4675 24.9764 28.4583 24.9981 28.4496 25.0199C28.4317 25.0638 28.4121 25.1069 28.391 25.1491C28.3752 25.1811 28.3587 25.2133 28.3408 25.2454C28.3292 25.2667 28.317 25.2881 28.3047 25.3095C28.2735 25.3627 28.2397 25.4155 28.2033 25.4681L28.1814 25.4996C28.0955 25.6192 28 25.7315 27.8955 25.8352C27.7926 25.9383 27.6823 26.0337 27.5655 26.1207C27.4486 26.2073 27.3389 26.3033 27.2375 26.4076C26.9456 26.7138 26.8776 26.9842 26.9433 27.1891C26.9538 27.2213 26.9675 27.2526 26.9842 27.2821C27.0039 27.3159 27.0272 27.347 27.0536 27.3753L27.0639 27.386L27.0744 27.3965C27.0848 27.4066 27.0959 27.4165 27.1078 27.4262L27.1194 27.4356C27.1476 27.4573 27.1775 27.4767 27.2088 27.4938C27.2179 27.4987 27.226 27.5035 27.2363 27.5082C27.2701 27.5247 27.3049 27.5389 27.3406 27.5503C27.3505 27.5536 27.3604 27.5566 27.3705 27.5597L27.3832 27.563L27.4006 27.5676L27.4156 27.5713L27.4319 27.5748L27.448 27.5781L27.4634 27.5806C27.4746 27.5826 27.4863 27.5845 27.4979 27.5859L27.509 27.5876L27.5292 27.5896L27.5416 27.5909L27.562 27.5923H27.5741L27.5954 27.5935H27.6626L27.6819 27.5923L27.704 27.5909L27.731 27.5884L27.7563 27.5855C27.7621 27.5855 27.7679 27.5839 27.7737 27.5828C27.8514 27.5715 27.9276 27.5509 28.0004 27.5214L28.0313 27.5084C28.0486 27.5008 28.066 27.4929 28.082 27.4843C28.1161 27.4672 28.1493 27.4478 28.1812 27.4266C28.2257 27.3975 28.2676 27.3649 28.3069 27.3289C28.3162 27.3206 28.3253 27.3116 28.3342 27.3031C28.3387 27.2988 28.343 27.2948 28.3473 27.2901C28.3558 27.2813 28.3645 27.2728 28.3731 27.2633C28.4352 27.1949 28.489 27.1196 28.5333 27.0386C28.9134 26.3474 29.3117 25.6664 29.7279 24.9966L29.785 24.9051L29.8427 24.8136C29.8715 24.7672 29.9006 24.7216 29.9295 24.6761L29.9587 24.6307C30.0554 24.4792 30.1537 24.3287 30.2537 24.1793L30.3129 24.0908C30.4318 23.9146 30.5502 23.7433 30.6677 23.5806L30.7262 23.5C30.854 23.3238 30.987 23.1513 31.1251 22.9832L31.1799 22.9175C31.189 22.9066 31.1974 22.8958 31.2073 22.8853C31.2253 22.8639 31.2434 22.8431 31.2611 22.8229C31.27 22.8126 31.2784 22.8025 31.2879 22.7924L31.3399 22.7338L31.366 22.7052C31.3922 22.6771 31.4178 22.6501 31.4431 22.6242C31.4605 22.6068 31.4767 22.5895 31.4934 22.5732C31.5918 22.4726 31.7004 22.3822 31.8175 22.304L31.8447 22.2865C31.8707 22.269 31.8977 22.2527 31.9253 22.2379C32.3844 21.9773 32.7645 21.9581 32.9834 22.177C33.1158 22.3094 33.1893 22.5291 33.1852 22.8348C33.1852 22.8482 33.1852 22.8618 33.1842 22.8758V22.8907C33.1842 22.9047 33.183 22.9187 33.1819 22.9329C33.1819 22.9503 33.1799 22.9676 33.1782 22.9851C33.1764 23.0024 33.1755 23.0156 33.1737 23.0311C33.1737 23.0354 33.1729 23.0399 33.1722 23.0445C33.171 23.0579 33.1692 23.0717 33.1673 23.0855C33.1673 23.0896 33.1673 23.0939 33.1658 23.0981C33.1636 23.1166 33.1609 23.1348 33.1578 23.1531C33.1557 23.1706 33.1527 23.1869 33.1496 23.204L33.1446 23.2329C33.1395 23.2605 33.1331 23.2877 33.1252 23.3145C33.11 23.3648 33.0918 23.4139 33.0702 23.4617C33.0401 23.5273 33.0069 23.5912 32.9704 23.6534C32.9502 23.688 32.9294 23.722 32.9078 23.7556C32.8857 23.7903 32.8624 23.8255 32.8383 23.861C32.7769 23.9488 32.7132 24.0348 32.647 24.1189L32.6167 24.1572C32.5087 24.2918 32.3972 24.4237 32.2823 24.5524L32.2459 24.5932C32.197 24.6478 32.1473 24.7027 32.0964 24.7579L32.0581 24.7995C32.0327 24.8272 32.0061 24.855 31.9805 24.883C31.955 24.9107 31.9284 24.9389 31.9016 24.9671L31.8218 25.0512L31.7408 25.1358L31.6592 25.2205C31.6045 25.2772 31.5495 25.3339 31.4941 25.3907C30.7066 26.1984 29.8769 27.0034 29.5961 27.5053C29.5772 27.5379 29.5603 27.5717 29.5452 27.6061C29.5052 27.6974 29.4885 27.7754 29.4999 27.8386C29.5036 27.8593 29.5108 27.8791 29.5215 27.8974C29.5372 27.9248 29.5564 27.95 29.5788 27.9726C29.5891 27.9827 29.5999 27.992 29.6114 28.0005C29.6693 28.0417 29.739 28.0629 29.8101 28.0609H29.8322L29.855 28.0592L29.8777 28.0567L29.8965 28.0539C29.899 28.0536 29.9018 28.0532 29.9043 28.0524L29.9216 28.0491L29.926 28.0481L29.9453 28.044L29.9521 28.0423C29.9589 28.0405 29.9655 28.0388 29.9723 28.0369C29.9791 28.0349 29.9884 28.0324 29.9965 28.0297C30.0307 28.0194 30.0641 28.0071 30.0969 27.9932C30.1142 27.9862 30.1311 27.9786 30.1478 27.9704C30.1566 27.9665 30.1653 27.9625 30.1735 27.9582L30.1995 27.9454C30.2616 27.9131 30.3222 27.878 30.3813 27.8403L30.4071 27.8228C30.4159 27.8174 30.4246 27.8118 30.4329 27.8055L30.4588 27.7883L30.4726 27.7787L30.5098 27.7525C30.5446 27.7286 30.577 27.704 30.6099 27.6789L30.6128 27.6766L30.665 27.6362C30.7363 27.5799 30.8039 27.5231 30.8653 27.4697L30.9061 27.434L30.9097 27.4305L30.9311 27.4117C30.9812 27.3666 31.0259 27.3247 31.063 27.2901L31.0783 27.2751C31.0917 27.2625 31.104 27.2507 31.115 27.2406L31.1368 27.219L31.1445 27.2114L31.1467 27.2093L31.1694 27.1866L31.1838 27.1716L31.1855 27.1703L31.1923 27.164L31.2009 27.1563L31.2036 27.1537L31.2108 27.1471L31.2504 27.1124L31.2725 27.0926C31.2844 27.0823 31.2958 27.0718 31.3073 27.0611L31.3337 27.0376C31.3386 27.0337 31.3432 27.0295 31.3481 27.0252L31.3759 27.0009L31.4166 26.965L31.4384 26.9461C31.5229 26.8727 31.6256 26.784 31.7437 26.6839L31.7921 26.643L31.8719 26.576L31.9537 26.5078C32.0605 26.419 32.1754 26.3248 32.297 26.2271L32.3768 26.1631C32.4448 26.1089 32.5145 26.0537 32.5852 25.9982C32.6138 25.9758 32.6427 25.9535 32.6723 25.9314C32.7445 25.8752 32.8171 25.8195 32.8904 25.7645C33.057 25.6387 33.2289 25.5126 33.4029 25.3899L33.4775 25.3378C33.5297 25.3019 33.5818 25.2658 33.6338 25.2306L33.681 25.1988C33.774 25.1356 33.8684 25.0741 33.9636 25.0141L34.0108 24.9844L34.0576 24.9552C34.1046 24.9261 34.1512 24.8975 34.1976 24.8698L34.244 24.842L34.3369 24.788L34.428 24.7358L34.4464 24.7257L34.5185 24.686C34.5486 24.6697 34.5785 24.654 34.6084 24.6387L34.6529 24.6157L34.6962 24.594C34.7113 24.5868 34.7263 24.5792 34.741 24.572C34.8385 24.5239 34.938 24.4796 35.039 24.4392C35.0664 24.4275 35.0935 24.417 35.1205 24.4079L35.2002 24.38C35.2241 24.372 35.2474 24.3644 35.2697 24.3576L35.2775 24.3553C35.2895 24.3514 35.3015 24.3479 35.3134 24.3448L35.3169 24.3438C35.3418 24.3366 35.3664 24.3304 35.3907 24.3246H35.3924C35.4612 24.3081 35.5311 24.2962 35.6016 24.2891C35.634 24.2858 35.6665 24.284 35.6991 24.2842H35.7154C35.7372 24.2842 35.7582 24.2856 35.7789 24.2877C35.7884 24.2877 35.798 24.2896 35.8073 24.2908H35.8112C35.8205 24.292 35.8298 24.2933 35.8391 24.2955C35.8483 24.2972 35.8576 24.2988 35.8665 24.3009H35.8694C35.8786 24.3029 35.8867 24.3052 35.8962 24.3079C35.9456 24.3217 35.9926 24.3431 36.0357 24.371C36.0569 24.3848 36.0767 24.4003 36.0949 24.4176L36.1002 24.4227C36.1037 24.4258 36.107 24.4291 36.1101 24.4324L36.1196 24.4427C36.1977 24.5245 36.2621 24.6183 36.3107 24.7204L36.3181 24.7379C36.3346 24.7767 36.3476 24.8169 36.3569 24.8579C36.3845 24.9834 36.3738 25.1143 36.3262 25.2337C36.3082 25.2819 36.2862 25.3283 36.2604 25.3726C36.2 25.4744 36.1283 25.5689 36.047 25.6546L36.0297 25.673C36.0038 25.7002 35.977 25.7274 35.9489 25.7546C35.9364 25.7669 35.9234 25.7789 35.9104 25.7911L35.8706 25.8278L35.8498 25.8463C35.7997 25.891 35.7482 25.9343 35.696 25.9762C35.6643 26.0019 35.6325 26.0269 35.6003 26.0516C35.4864 26.1386 35.3705 26.2225 35.2524 26.3035C35.1811 26.3524 35.1093 26.4004 35.0368 26.4478C34.8583 26.5649 34.6779 26.6791 34.4957 26.7902C34.1135 27.0252 33.6899 27.2765 33.2384 27.5498L33.1215 27.6206C32.9935 27.6987 32.8727 27.7733 32.7589 27.8444L32.7016 27.8803L32.5932 27.9498C32.5213 27.9959 32.4497 28.0423 32.378 28.0887L32.3203 28.1268C32.2922 28.145 32.2642 28.1637 32.2362 28.1823L32.2089 28.1998L32.125 28.2563L32.0805 28.2868L32.0284 28.3229L31.9801 28.3565C31.8991 28.4138 31.8237 28.4684 31.7544 28.5203L31.7284 28.5401C31.6876 28.5709 31.6472 28.6024 31.6074 28.6345C31.5474 28.6828 31.4926 28.729 31.4434 28.7735L31.4194 28.7955C31.4056 28.8081 31.392 28.8207 31.379 28.8331C31.37 28.8419 31.3617 28.8506 31.3524 28.859L31.3399 28.8714C31.3122 28.8994 31.285 28.9279 31.2587 28.9572L31.2459 28.972C31.2174 29.005 31.1925 29.0367 31.1708 29.0676L31.1611 29.0813C31.144 29.1062 31.1282 29.1318 31.1141 29.1583C31.1104 29.1649 31.1071 29.1715 31.1038 29.1781L31.0942 29.1979L31.0878 29.2122L31.0838 29.222L31.0805 29.2307L31.076 29.2425C31.0639 29.2754 31.0556 29.3095 31.0507 29.3441L31.0492 29.3562L31.048 29.3674V29.4286C31.048 29.4337 31.048 29.4387 31.0494 29.4441L31.0504 29.4535C31.0504 29.4585 31.0515 29.4634 31.0523 29.4688C31.0531 29.4739 31.0544 29.483 31.056 29.4902V29.4911C31.0573 29.4979 31.0587 29.5045 31.0605 29.5113C31.0622 29.5181 31.0639 29.5259 31.0661 29.5329C31.0698 29.5467 31.0744 29.5603 31.0793 29.5739C31.0824 29.582 31.0853 29.59 31.0886 29.598C31.0886 29.5995 31.0898 29.6013 31.0906 29.6028L31.0975 29.6185L31.1073 29.6401C31.1177 29.6624 31.1292 29.6842 31.1416 29.7054L31.1545 29.7275L31.1677 29.7496C31.17 29.7533 31.1727 29.7568 31.1756 29.7601L31.1799 29.7646L31.1848 29.7691L31.1898 29.7729C31.1972 29.7782 31.2051 29.7823 31.2135 29.7852C31.218 29.7867 31.2226 29.7879 31.2273 29.7891C31.3393 29.8143 31.5697 29.7217 31.8758 29.5601C31.8931 29.5508 31.9121 29.5411 31.9305 29.531L32.0238 29.4801L32.0692 29.4548C32.1016 29.4375 32.1347 29.4179 32.1685 29.3987L32.23 29.3639C32.6346 29.1311 33.1178 28.832 33.6173 28.5399C33.6641 28.5125 33.7111 28.4851 33.7581 28.4581L33.8525 28.3977C33.962 28.335 34.0722 28.273 34.1827 28.2118C34.3219 28.1353 34.4621 28.0607 34.6037 27.9885L34.6962 27.9417C34.7576 27.9114 34.8183 27.8819 34.8784 27.8531C34.9945 27.798 35.112 27.7455 35.2309 27.696L35.2959 27.6696L35.3037 27.6665C35.6484 27.5299 35.9609 27.4457 36.2138 27.4457C36.2684 27.4451 36.3231 27.4497 36.3769 27.4591H36.3787C36.396 27.4622 36.4117 27.4657 36.4278 27.4695H36.4307C36.4721 27.48 36.5123 27.495 36.5504 27.5142C36.6038 27.5418 36.6517 27.5785 36.6923 27.6228C36.711 27.6434 36.7275 27.6657 36.742 27.6894C36.7692 27.7312 36.7906 27.7764 36.8059 27.8238C36.8122 27.8422 36.8176 27.8603 36.8232 27.8795C36.8642 28.0266 36.8601 28.1825 36.8116 28.3272Z" fill="var(--fill-0, #FF9D00)"/>
<path id="Vector_3" fill-rule="evenodd" clip-rule="evenodd" d="M34.5211 17.7788V17.6834C34.5211 9.5547 27.9337 2.96514 19.8044 2.96514C11.6753 2.96514 5.08533 9.55509 5.08533 17.6834V17.7153C5.08494 17.7364 5.08475 17.7576 5.08533 17.7788C5.08628 17.8104 5.08661 17.8421 5.0863 17.8738L5.08729 17.9437L5.08786 17.9687C5.08786 17.9804 5.08826 17.9918 5.08865 18.0035C5.08924 18.0219 5.0896 18.0406 5.0896 18.059L5.09174 18.1346L5.09485 18.2233L5.09582 18.2525L5.0997 18.3443V18.3488C5.10126 18.3847 5.10322 18.4205 5.10497 18.4562L5.10514 18.4589C5.10708 18.4954 5.10905 18.5321 5.11138 18.5688C5.11332 18.6026 5.11524 18.6364 5.11777 18.6702L5.11817 18.6763C5.11986 18.7052 5.12181 18.7343 5.12398 18.7633L5.12456 18.771L5.13097 18.8549L5.13158 18.8604C5.13274 18.8767 5.13389 18.893 5.13544 18.9087C5.14705 19.0488 5.16059 19.1888 5.17605 19.3284L5.177 19.3372L5.18885 19.4399L5.20208 19.5477L5.21177 19.6209L5.21623 19.6553C5.22659 19.7345 5.23779 19.8136 5.24983 19.8924L5.25063 19.8977L5.26207 19.9723C5.31752 20.3275 5.38619 20.6806 5.46794 21.0307L5.46893 21.035L5.47512 21.0612L5.4928 21.136L5.50367 21.123C5.93095 20.6122 6.54389 20.3306 7.22967 20.3306C7.7793 20.3306 8.34313 20.5124 8.9083 20.8707C9.28314 21.1088 9.69759 21.5305 10.1241 22.0609C10.5187 21.5128 11.0719 21.1484 11.7046 21.049C11.8253 21.03 11.9472 21.0204 12.0694 21.0202C13.5136 21.0202 14.3834 22.2735 14.712 23.4009C14.8744 23.7818 15.6569 25.5165 16.837 26.69C18.6307 28.482 19.0796 30.3312 18.1918 32.3112H18.1949C18.2553 32.318 18.3161 32.3242 18.3773 32.3298C18.4136 32.3333 18.4497 32.3368 18.4862 32.3399L18.4991 32.3411L18.5793 32.3479L18.6531 32.3537C18.7234 32.3592 18.7939 32.3642 18.8646 32.3687L18.9207 32.372L18.9652 32.3747L18.9928 32.3763L19.0796 32.3807L19.1033 32.3817L19.1944 32.3858L19.2957 32.3897L19.3771 32.392L19.3907 32.3924C19.408 32.3932 19.4253 32.3937 19.4426 32.3937L19.4612 32.3943C19.5758 32.397 19.6902 32.3984 19.8048 32.3982H19.9264L20.0132 32.3972C20.0345 32.3963 20.0557 32.3963 20.0773 32.3963H20.1111L20.1404 32.3955C20.1518 32.3951 20.1633 32.3947 20.1749 32.3947H20.2097L20.2779 32.393L20.3804 32.3895L20.4933 32.3844C20.5259 32.3832 20.5581 32.3815 20.5904 32.3799L20.6251 32.3778L20.6768 32.3751L20.7071 32.3733L20.73 32.3718L20.8343 32.365L20.9384 32.3574L21.033 32.3498L21.0994 32.3442L21.1724 32.3376C21.2944 32.3267 21.416 32.3139 21.5376 32.2993L21.6205 32.2894C20.7467 30.3178 21.1991 28.4766 22.9853 26.6917C24.1628 25.5152 24.9453 23.7804 25.1084 23.3994C25.4372 22.2722 26.3065 21.0189 27.7511 21.0189C27.8733 21.0189 27.9954 21.0286 28.1161 21.0476C28.7482 21.1471 29.3014 21.5114 29.6966 22.0595C30.1233 21.5293 30.5375 21.1073 30.9126 20.8691C31.4775 20.511 32.0419 20.3292 32.591 20.3292C33.1962 20.3292 33.7446 20.5487 34.1589 20.9513C34.1665 20.9185 34.1738 20.8857 34.181 20.8526L34.2022 20.7544C34.2098 20.7184 34.2174 20.6825 34.2245 20.6466C34.2374 20.5831 34.2502 20.5196 34.2624 20.4555C34.2752 20.389 34.2875 20.3222 34.2991 20.2554L34.3051 20.2193C34.3088 20.1979 34.3123 20.1766 34.3164 20.155C34.323 20.1216 34.3284 20.0882 34.3339 20.0544L34.336 20.0416L34.3498 19.9536L34.3634 19.8645V19.8637C34.3733 19.7979 34.3826 19.732 34.3914 19.6662L34.3935 19.6499L34.4057 19.557L34.4156 19.4778L34.4331 19.3216L34.4399 19.2589L34.4417 19.2418C34.4454 19.208 34.4489 19.1742 34.452 19.1404V19.1377C34.4545 19.1109 34.4572 19.0839 34.4595 19.0569C34.4733 18.9039 34.485 18.7501 34.4943 18.5957C34.4961 18.5704 34.4974 18.545 34.499 18.5195V18.5184L34.504 18.423L34.5052 18.4016C34.5083 18.3372 34.511 18.2727 34.5131 18.2082V18.2059L34.5141 18.1806C34.5151 18.1594 34.5159 18.1381 34.5159 18.1167L34.5163 18.1082C34.517 18.0882 34.5178 18.0676 34.5178 18.0472L34.5184 18.0297C34.519 18.0093 34.5196 17.9891 34.5196 17.9687L34.5199 17.9514C34.5205 17.9256 34.5211 17.8996 34.5211 17.8738V17.7788ZM16.1537 32.4821C17.3194 30.7728 17.2367 29.4898 15.6375 27.8914C14.0379 26.2928 13.107 23.9552 13.107 23.9552C13.107 23.9552 12.7596 22.5975 11.9672 22.7222C11.1748 22.8468 10.5935 24.8758 12.2527 26.1178C13.9117 27.3598 11.9225 28.202 11.284 27.0365C10.6454 25.8708 8.90187 22.8746 7.99799 22.3015C7.09411 21.7284 6.45844 22.0496 6.67149 23.2308C6.77734 23.8172 7.76165 24.8179 8.68126 25.7529C9.61428 26.7015 10.4807 27.5824 10.2954 27.8941C9.92772 28.5131 8.6329 27.1668 8.6329 27.1668C8.6329 27.1668 4.57843 23.4771 3.69591 24.4386C2.88214 25.3249 4.13697 26.0782 6.07061 27.2394C6.23492 27.3381 6.40427 27.4399 6.57771 27.5447C8.79002 28.8841 8.96208 29.2373 8.64803 29.744C8.53208 29.9313 7.79154 29.4867 6.88066 28.94C5.32791 28.0076 3.2805 26.7784 2.99131 27.8786C2.74116 28.8308 4.24748 29.4143 5.6136 29.9435C6.75171 30.3844 7.79272 30.7876 7.63949 31.3349C7.48081 31.9024 6.62063 31.4291 5.68043 30.9117C4.62487 30.3308 3.46831 29.6945 3.08978 30.4125C2.37448 31.7701 8.02481 33.3683 8.07142 33.3802C9.89705 33.8537 14.5334 34.857 16.1537 32.4821ZM23.6631 32.4821C22.4974 30.7728 22.5801 29.4898 24.1795 27.8914C25.7789 26.2928 26.7097 23.9552 26.7097 23.9552C26.7097 23.9552 27.0572 22.5975 27.8496 22.7222C28.642 22.8468 29.2233 24.8758 27.5643 26.1178C25.9051 27.3598 27.8943 28.202 28.5328 27.0365C29.1716 25.8708 30.9139 22.8746 31.8178 22.3015C32.7217 21.7284 33.3578 22.0496 33.1445 23.2308C33.0388 23.8172 32.0544 24.8179 31.1348 25.7531C30.2017 26.7016 29.3353 27.5824 29.5204 27.8941C29.8881 28.5131 31.1839 27.166 31.1839 27.166C31.1839 27.166 35.2382 23.4765 36.1211 24.4381C36.9346 25.3241 35.6798 26.0776 33.746 27.2388C33.5768 27.3404 33.4079 27.4422 33.2391 27.5442C31.0268 28.8835 30.8547 29.2368 31.1685 29.7433C31.2847 29.9307 32.0252 29.4859 32.9359 28.9392C34.4889 28.007 36.5363 26.7776 36.8255 27.878C37.0758 28.8303 35.5693 29.4137 34.2032 29.9429C33.0651 30.3838 32.0241 30.787 32.1771 31.3343C32.3356 31.9016 33.1956 31.4283 34.1356 30.9109C35.1912 30.33 36.3479 29.6934 36.7262 30.412C37.4417 31.7703 31.7904 33.367 31.7448 33.3786C29.9192 33.8537 25.2828 34.857 23.6631 32.4821Z" fill="var(--fill-0, #FFD21E)"/>
<path id="Vector_4" fill-rule="evenodd" clip-rule="evenodd" d="M24.5834 13.6772C24.813 13.7584 24.9837 14.0055 25.1461 14.2407C25.3655 14.5584 25.5698 14.8542 25.8833 14.6876C26.2531 14.4908 26.5563 14.189 26.7544 13.82C26.9527 13.451 27.0371 13.0316 26.9971 12.6147C26.9672 12.3029 26.8686 12.0017 26.7081 11.7327C26.5477 11.4637 26.3296 11.2336 26.0698 11.0591C25.8097 10.8845 25.5141 10.7698 25.2045 10.7232C24.8947 10.6766 24.5786 10.6993 24.2787 10.7896C23.9788 10.8799 23.7028 11.0356 23.4704 11.2454C23.2379 11.4552 23.0547 11.7139 22.9343 12.0029C22.8139 12.2919 22.759 12.6041 22.7735 12.9169C22.7883 13.2298 22.872 13.5353 23.019 13.8118C23.1643 14.0851 23.4867 13.9561 23.8269 13.82C24.0936 13.7134 24.3715 13.6023 24.5834 13.6772ZM14.6056 13.6772C14.376 13.7584 14.2053 14.0057 14.0429 14.2407C13.8235 14.5586 13.619 14.8542 13.3057 14.6876C12.8406 14.4413 12.484 14.0305 12.3052 13.5357C12.1265 13.0407 12.1385 12.4969 12.3388 12.0103C12.5392 11.5237 12.9136 11.1291 13.389 10.9035C13.8644 10.6779 14.4068 10.6375 14.9105 10.79C15.3115 10.9108 15.6677 11.1477 15.9342 11.4708C16.2007 11.794 16.3652 12.1889 16.4073 12.6056C16.4493 13.0222 16.3667 13.442 16.1702 13.8118C16.0247 14.0851 15.7023 13.9561 15.362 13.8202C15.0952 13.7134 14.8177 13.6023 14.6056 13.6772ZM23.0398 22.757C24.6213 21.5111 25.2022 19.4769 25.2022 18.2238C25.2022 17.2333 24.5358 17.5451 23.469 18.0733L23.4088 18.103C22.4296 18.588 21.126 19.2338 19.695 19.2338C18.2638 19.2338 16.9602 18.588 15.9812 18.1028C14.8798 17.5573 14.189 17.2151 14.189 18.224C14.189 19.5167 14.807 21.6393 16.5033 22.8724C16.7272 22.4181 17.0424 22.0149 17.4293 21.6879C17.816 21.3608 18.2662 21.1171 18.7513 20.9718C18.9207 20.9213 19.0951 21.2128 19.2736 21.5113C19.4458 21.7992 19.622 22.0936 19.801 22.0936C19.992 22.0936 20.1794 21.8034 20.3625 21.5203C20.5538 21.2241 20.7405 20.9357 20.9209 20.9934C21.8289 21.2849 22.5884 21.917 23.0398 22.757Z" fill="var(--fill-0, #32343D)"/>
<path id="Vector_5" d="M23.0401 22.757C22.2164 23.4061 21.1216 23.8413 19.6958 23.8413C18.3563 23.8413 17.3087 23.4572 16.5039 22.8724C16.7278 22.4181 17.043 22.0147 17.4299 21.6879C17.8166 21.3608 18.2668 21.1171 18.752 20.9718C19.0845 20.8725 19.437 22.0936 19.8017 22.0936C20.1921 22.0936 20.5683 20.8805 20.9215 20.9933C21.8293 21.285 22.5887 21.9172 23.0401 22.757Z" fill="var(--fill-0, #FF323D)"/>
<path id="Vector_6" fill-rule="evenodd" clip-rule="evenodd" d="M10.8247 15.4394C10.6366 15.5653 10.4202 15.6428 10.1949 15.6649C9.96961 15.6873 9.7423 15.6535 9.53319 15.5666C9.36603 15.4977 9.21413 15.3963 9.08626 15.2683C8.95837 15.1405 8.85701 14.9887 8.78798 14.8214C8.70136 14.6123 8.66767 14.385 8.68994 14.1597C8.7122 13.9345 8.78971 13.7181 8.91558 13.5299C9.06684 13.3034 9.28184 13.127 9.53342 13.0227C9.78501 12.9185 10.0618 12.8913 10.3289 12.9444C10.596 12.9976 10.8413 13.1288 11.0338 13.3213C11.2263 13.514 11.3573 13.7595 11.4103 14.0265C11.4634 14.2936 11.4361 14.5703 11.3319 14.8218C11.2277 15.0733 11.0511 15.2881 10.8247 15.4394ZM30.5208 15.4394C30.3326 15.5653 30.1162 15.6428 29.8909 15.6649C29.6654 15.6873 29.4382 15.6535 29.229 15.5666C29.0618 15.4975 28.9099 15.3963 28.7821 15.2683C28.6543 15.1405 28.553 14.9887 28.4838 14.8214C28.3974 14.6123 28.3638 14.385 28.3859 14.1597C28.4083 13.9345 28.4858 13.7181 28.6114 13.5299C28.7245 13.3605 28.8738 13.2186 29.0484 13.1138C29.223 13.0092 29.4186 12.9446 29.6211 12.9247C29.8239 12.9047 30.0284 12.93 30.2199 12.9987C30.4116 13.0674 30.5856 13.1777 30.7295 13.3217C30.9222 13.5142 31.0533 13.7595 31.1063 14.0265C31.1595 14.2936 31.1321 14.5703 31.0279 14.8218C30.9236 15.0733 30.7472 15.2881 30.5208 15.4394Z" fill="var(--fill-0, #FFAD03)"/>
</g>
</svg>
